
        <svg xmlns="http://www.w3.org/2000/svg" xmlns:xlink="http://www.w3.org/1999/xlink" version="1.1" width="3162.208309618669" height="1027.5128607577144" viewBox="0 0 3162.208309618669 1027.5128607577144">
			
			<g transform="scale(8.11041548093341) translate(10, 10)">
				<defs id="SvgjsDefs3647"/><g id="SvgjsG3648" featureKey="PG4fjM-0" transform="matrix(1.1409898453018017,0,0,1.1409898453018017,-10.996860686142712,-3.7047940037560303)" fill="#fff"><g xmlns="http://www.w3.org/2000/svg"><g><polygon points="36.703,11.011 9.638,26.636 9.638,38.757 36.703,23.131 63.767,38.757 63.767,26.636   "/></g><g><polygon points="63.298,89.092 36.233,73.467 36.233,61.348 63.298,76.973 90.362,61.348 90.362,73.467   "/></g><g><polygon points="9.638,42.012 36.703,26.386 47.198,32.446 20.134,48.072 20.134,79.324 9.638,73.264   "/></g><g><polygon points="77.083,18.872 50.018,3.247 39.522,9.307 66.586,24.932 66.586,56.184 77.083,50.124   "/></g><g><polygon points="23.01,81.127 23.011,49.876 33.507,43.816 33.507,75.068 60.571,90.693 50.075,96.754   "/></g><g><polygon points="90.362,58.092 90.362,26.84 79.866,20.78 79.866,52.031 52.802,67.658 63.298,73.719   "/></g></g></g><g id="SvgjsG3649" featureKey="jxYttZ-0" transform="matrix(3.500781080949054,0,0,3.500781080949054,105.69859255191945,9.496094595254728)" fill="#fff"><path d="M11.76 6.84 l-7.74 0 l0 4.68 l6.34 0 l0 1.84 l-6.34 0 l0 6.64 l-2.22 0 l0 -15 l9.96 0 l0 1.84 z M23.28 15.08 l0 0.74 l-7.78 0 c0 1.82 1.74 2.7 3.02 2.7 c0.94 0 1.98 -0.5 2.54 -1.3 l1.42 1.28 c-0.66 0.9 -1.74 1.7 -3.96 1.7 c-3.2 0 -5.16 -2.18 -5.16 -5.12 s1.9 -5.14 4.96 -5.14 s4.46 1.7 4.88 4.18 c0.06 0.32 0.08 0.64 0.08 0.96 z M15.54 14.120000000000001 l5.58 0 c0 -1.6 -1.28 -2.48 -2.8 -2.48 s-2.78 1.02 -2.78 2.48 z M37.18 10.12 l2.06 0 l-3.76 9.88 l-1.26 0 l-2.46 -6.4 l-2.44 6.4 l-1.26 0 l-3.78 -9.88 l2.08 0 l2.34 6.9 l2.06 -6.08 l0.26 -0.82 l1.48 0 l0.28 0.82 l2.06 6.08 z M47.58 16.16 c0.04 0.12 0.38 1.1 -0.04 2.1 c-0.52 1.18 -1.9 1.94 -3.62 1.94 l-0.02 0 c-1.38 0 -2.64 -0.58 -3.58 -1.5 l1.34 -1.34 c0.56 0.72 1.36 1.08 2.24 1.08 c0.98 0 1.8 -0.36 2.02 -0.88 c0.14 -0.36 0.02 -0.74 0.02 -0.78 c-0.24 -0.6 -1.12 -0.72 -2.12 -0.94 c-1.34 -0.3 -2.68 -0.64 -3.2 -2.04 c-0.26 -0.72 -0.18 -1.56 0.18 -2.26 c0.82 -1.54 2.86 -1.6 3.1 -1.6 c1.38 0 2.68 0.52 3.6 1.46 l-1.34 1.34 c-0.56 -0.72 -1.38 -1.04 -2.26 -1.04 c-0.02 0 -1.2 0.02 -1.54 0.68 c-0.12 0.2 -0.18 0.54 -0.08 0.82 c0.2 0.56 1.1 0.74 2.06 0.96 c1.3 0.3 2.72 0.6 3.24 2 z M54.26 9.92 c2.84 0 3.98 1.72 3.98 3.18 l0 6.9 l-2.06 0 l0 -1.08 c-0.72 0.98 -2 1.26 -2.8 1.26 c-2.26 0 -3.74 -1.32 -3.74 -3.08 c0 -2.46 1.84 -3.34 3.74 -3.34 l2.8 0 l0 -0.66 c0 -0.62 -0.24 -1.48 -1.92 -1.48 c-0.94 0 -1.8 0.5 -2.36 1.28 l-1.42 -1.28 c0.94 -1.04 2.28 -1.7 3.78 -1.7 z M56.17999999999999 16.92 l0 -1.48 l-2.52 0 c-1.22 0 -2.08 0.62 -1.94 1.74 c0.12 0.94 0.88 1.32 1.94 1.32 c1.9 0 2.52 -0.9 2.52 -1.58 z M64.52 18.36 c0.64 0.26 1.14 0.08 1.44 -0.06 l0 1.6 c-0.26 0.16 -0.64 0.3 -1.18 0.3 c-1.18 0 -2.22 -0.38 -2.86 -1.42 c-0.6 -1 -0.6 -1.54 -0.6 -3.1 l0 -3.88 l-1.2 0 l0 -1.68 l1.2 0 l0 -3.12 l2.06 0 l0 3.12 l2.58 0 l0 1.68 l-2.58 0 l0 3.88 c0 1.64 0.16 2.24 1.14 2.68 z M75.3 16.16 c0.04 0.12 0.38 1.1 -0.04 2.1 c-0.52 1.18 -1.9 1.94 -3.62 1.94 l-0.02 0 c-1.38 0 -2.64 -0.58 -3.58 -1.5 l1.34 -1.34 c0.56 0.72 1.36 1.08 2.24 1.08 c0.98 0 1.8 -0.36 2.02 -0.88 c0.14 -0.36 0.02 -0.74 0.02 -0.78 c-0.24 -0.6 -1.12 -0.72 -2.12 -0.94 c-1.34 -0.3 -2.68 -0.64 -3.2 -2.04 c-0.26 -0.72 -0.18 -1.56 0.18 -2.26 c0.82 -1.54 2.86 -1.6 3.1 -1.6 c1.38 0 2.68 0.52 3.6 1.46 l-1.34 1.34 c-0.56 -0.72 -1.38 -1.04 -2.26 -1.04 c-0.02 0 -1.2 0.02 -1.54 0.68 c-0.12 0.2 -0.18 0.54 -0.08 0.82 c0.2 0.56 1.1 0.74 2.06 0.96 c1.3 0.3 2.72 0.6 3.24 2 z"/></g>
			</g>
		</svg>
	