<svg width="137" height="114" viewBox="0 0 137 114" fill="none" xmlns="http://www.w3.org/2000/svg">
<g clip-path="url(#clip0_20_13)">
<g filter="url(#filter0_i_20_13)">
<path d="M78.172 69.429C78.16 68.043 77.978 66.592 77.522 65.29C75.912 60.7 71.163 58.052 66.397 58.933C61.733 59.798 58.309 63.9 58.301 68.753C58.284 81.007 58.29 93.261 58.292 105.514C58.2695 107.441 57.4883 109.281 56.1179 110.635C54.7475 111.99 52.8983 112.749 50.9715 112.749C49.0447 112.749 47.1955 111.99 45.8251 110.635C44.4547 109.281 43.6735 107.441 43.651 105.514C43.648 93.008 43.64 80.504 43.677 67.998C43.681 66.321 43.895 64.615 44.239 62.971C46.7 51.166 57.877 42.836 70.007 43.709C82.093 44.578 92.081 54.318 92.655 66.333C92.889 71.2 92.942 79.573 92.954 85.708C92.962 89.852 89.506 93.31 85.362 93.31C81.414 93.31 78.187 90.162 78.172 86.215C78.151 80.619 78.223 75.021 78.172 69.425" fill="#F95828"/>
<path d="M129.536 93.313C125.536 93.313 122.378 90.177 122.374 86.179C122.368 80.817 122.358 73.725 122.3 69.594C122.255 66.551 122.105 63.471 121.584 60.48C116.552 31.826 90.828 12.54 61.995 15.71C37.367 18.413 17.451 38.244 14.549 62.978C14.124 66.574 11.219 69.364 7.59699 69.364H7.05199C2.88299 69.364 -0.353006 65.986 0.030994 61.836C0.190994 60.114 0.377994 58.453 0.582994 57.292C7.75799 16.788 49.287 -8.76997 88.443 3.83203C115.109 12.415 130.938 31.188 136.14 58.779C136.876 62.687 136.999 76.959 137 85.886C137.001 90.004 133.654 93.313 129.536 93.313Z" fill="#F95828"/>
<path d="M100.072 68.94C100.071 68.94 100.071 68.9399 100.07 68.9397C100.07 68.9394 100.069 68.939 100.069 68.9385C100.068 68.938 100.068 68.9375 100.068 68.9369C100.068 68.9362 100.068 68.9356 100.068 68.935C100.052 67.203 99.975 65.458 99.748 63.745C97.34 45.672 79.518 33.192 61.704 37.072C46.68 40.346 36.377 53.177 36.348 68.725C36.325 80.965 36.341 93.204 36.346 105.443C36.3466 107.371 35.5861 109.221 34.2297 110.591C32.8734 111.962 31.0309 112.741 29.103 112.76C28.1358 112.77 27.1764 112.587 26.28 112.224C25.3837 111.861 24.5682 111.323 23.8807 110.643C23.1932 109.963 22.6474 109.153 22.2746 108.26C21.9019 107.368 21.7096 106.41 21.709 105.443C21.701 93.345 21.684 81.248 21.749 69.153C21.76 66.304 22.027 63.427 22.488 60.61C26.578 35.666 51.398 18.296 76.268 22.903C98.876 27.093 114.713 46.109 114.721 69.073C114.721 74.316 114.775 94.418 114.821 105.548C114.838 109.635 111.439 113.06 107.351 113.06C105.46 113.06 103.647 112.311 102.307 110.976C100.968 109.642 100.212 107.831 100.205 105.94L100.076 68.943C100.076 68.941 100.075 68.94 100.072 68.94Z" fill="#F95828"/>
</g>
</g>
<defs>
<filter id="filter0_i_20_13" x="3.05176e-05" y="0.597473" width="137" height="120.642" filterUnits="userSpaceOnUse" color-interpolation-filters="sRGB">
<feFlood flood-opacity="0" result="BackgroundImageFix"/>
<feBlend mode="normal" in="SourceGraphic" in2="BackgroundImageFix" result="shape"/>
<feColorMatrix in="SourceAlpha" type="matrix" values="0 0 0 0 0 0 0 0 0 0 0 0 0 0 0 0 0 0 127 0" result="hardAlpha"/>
<feOffset dy="8.179"/>
<feGaussianBlur stdDeviation="5.112"/>
<feComposite in2="hardAlpha" operator="arithmetic" k2="-1" k3="1"/>
<feColorMatrix type="matrix" values="0 0 0 0 1 0 0 0 0 1 0 0 0 0 1 0 0 0 0.46 0"/>
<feBlend mode="normal" in2="shape" result="effect1_innerShadow_20_13"/>
</filter>
<clipPath id="clip0_20_13">
<rect width="137" height="114" fill="white"/>
</clipPath>
</defs>
</svg>
